<svg xmlns="http://www.w3.org/2000/svg" width="800" height="686" viewBox="-38.331 -38.266 320 276.291">
  <path d="M141.992 8.139s-4.978-5.512-11.557-5.512c0 0-14.401 0-24.18 31.114 0 0-8.356 27.203-8.356 67.562 0 0 0 38.048 7.823 64.895 0 0 7.823 27.202 19.201 27.202 0 0 8.001 0 14.757-14.935 0 0 6.757-14.935 9.602-39.292l21.335-5.334s-5.512 45.337-22.58 74.673c0 0-17.602 29.514-39.825 29.514 0 0-26.669 0-45.516-40.004 0 0-18.846-40.003-18.846-96.719 0 0 0-56.716 18.846-97.075 0 0 18.847-40.181 45.516-40.181 0 0 26.669 0 45.692 40.892l-11.912 3.2" fill="#02489d"/>
  <path d="M217.021 62.721s-36.804 30.403-95.476 45.16c0 0-58.85 14.579-105.609 4.978 0 0-46.76-9.957-53.693-38.581 0 0-5.867-23.824 19.913-50.138 0 0 25.424-26.136 71.117-43.56l3.022 11.734S29.626 3.693 14.869 18.094c0 0-15.112 15.112-11.734 28.091 0 0 4.444 16.535 35.736 21.513 0 0 31.114 4.8 71.473-5.156 0 0 40.004-9.957 65.606-28.98 0 0 25.246-19.202 20.979-35.914 0 0-3.556-14.401-29.158-20.625l-3.911-15.29s33.247 1.245 55.294 12.268c0 0 22.579 11.023 27.202 29.692.001.001 7.29 28.448-29.335 59.028" fill="#02489d"/>
</svg>
