<svg version="1.1" id="Layer_1" xmlns:x="ns_extend;" xmlns:i="ns_ai;" xmlns:graph="ns_graphs;" xmlns="http://www.w3.org/2000/svg" xmlns:xlink="http://www.w3.org/1999/xlink" x="0px" y="0px" viewBox="0 0 77.8 77" style="enable-background:new 0 0 77.8 77;" xml:space="preserve">
 <style type="text/css">
  .st0{fill:#95C11F;}
	.st1{fill:#0085CC;}
 </style>
 <metadata>
  <sfw xmlns="ns_sfw;">
   <slices>
   </slices>
   <sliceSourceBounds bottomLeftOrigin="true" height="77" width="77.8" x="71.6" y="8.7">
   </sliceSourceBounds>
  </sfw>
 </metadata>
 <g>
  <g>
   <g>
    <path class="st0" d="M75.8,47.4C69,38.3,58.7,29.1,55.9,26.7c-1.9-1.6-4-2.4-5.9-2.4s-3.9,0.9-5.5,2.2c-0.3,0.3-0.7,0.7-1.3,1.2
				c-4,3.4-16.7,15-17,15.3c-0.9,0.9-2.2,1.5-3.6,1.5c-1.2,0-2.5-0.6-3.9-1.8c-0.9-0.9-5.2-4.3-10.3-10c-3.1-3.4-5.7-6.5-5.7-6.5
				s-0.6,1.2-0.9,1.9c-0.3,0.7,0,1,0.1,1.3c1.6,2.4,9.4,11.6,19.9,20.7c1.9,1.6,4,2.4,5.9,2.4s3.9-0.9,5.5-2.2
				c0.3-0.3,0.9-0.7,1.3-1.2c4-3.4,11.7-10.4,15.3-13.8c0.7-0.7,1.3-1.2,1.6-1.5c0.9-0.9,2.2-1.5,3.6-1.5c1.2,0,2.5,0.6,3.9,1.8
				c2.2,1.9,5.9,5.4,10.3,9.8c3.1,3.4,5.7,6.5,5.7,6.5s0.6-1.2,0.9-2.1C76.3,48,76,47.5,75.8,47.4">
    </path>
    <path class="st1" d="M35.1,14.1c-3.6,2.5-18.1,16.1-21,19.3c0,0,2.1,2.2,5.1,4.8c0.7,0.7,1.8,0.6,2.5-0.3
				c5.7-5.7,17.1-15.8,18.6-17c4.3-3.7,9.4-4,14-0.6C65.4,28.6,75.4,41.9,77,44.4c0,0,0.3-1.2,0.4-2.2c0,0,0.1-1-0.3-1.9
				c-10.6-15.2-21.7-24.5-26-26.9C46.5,10.8,40.7,9.9,35.1,14.1">
    </path>
    <path class="st1" d="M23.2,6C16.1,11.8,6.7,20.5,4.3,23c0,0,1.8,2.2,4.5,4.9c0.6,0.4,1,0.3,1.6-0.1c7.1-6.8,14.9-14,19.3-17.4
				c7.6-5.8,16.4-6.4,25.1,0.4c3.3,2.5,6.1,5.1,10.3,9.4c5.4,5.8,8.8,10.7,12.6,16.2c0,0,0-1.5-0.4-3.4c0-0.3-0.1-0.9-0.4-1.3
				c-0.7-1.5-4.2-7.3-9.1-12.9C58.2,7.4,52.1,4,48,1.9C43-0.8,32.9-1.5,23.2,6">
    </path>
    <path class="st1" d="M42.7,63c3.6-2.5,18.1-16.1,21-19.3c0,0-2.1-2.2-5.1-4.8c-0.7-0.7-1.8-0.6-2.5,0.3
				C50.3,44.7,38.8,54.8,37.3,56c-4.3,3.7-9.4,4-14,0.6C12.2,48.3,2.2,35,0.6,32.5c0,0-0.3,1.2-0.4,2.2c0,0-0.1,1,0.3,1.9
				c10.6,15.2,21.7,24.5,26,26.9C31.4,66.3,37,67,42.7,63">
    </path>
    <path class="st1" d="M54.4,70.9c7.1-5.8,16.5-14.4,18.9-17c0,0-1.8-2.2-4.5-4.9c-0.6-0.4-1-0.3-1.5,0.1
				C60.2,56,52.5,63.2,48,66.6c-7.6,5.8-16.4,6.4-25.1-0.4c-3.3-2.5-6.1-5.1-10.3-9.4C7.3,51,3.9,46,0,40.5c0,0,0,1.3,0.4,3.4
				c0.1,0.3,0.1,0.9,0.4,1.3c0.7,1.5,4.2,7.3,9.1,13.1c9.7,11.3,15.8,14.7,19.8,16.8C34.8,77.7,45.1,78.6,54.4,70.9">
    </path>
   </g>
  </g>
 </g>
</svg>